<?xml version="1.0" encoding="UTF-8"?>
<svg id="Layer_2" data-name="Layer 2" xmlns="http://www.w3.org/2000/svg" viewBox="0 0 381.16 108.43">
  <defs>
    <style>
      .cls-1 {
        fill: #123155;
      }

      .cls-2 {
        fill: #a31e22;
      }
    </style>
  </defs>
  <g id="Layer_1-2" data-name="Layer 1">
    <g>
      <path class="cls-1" d="M11.67,16.97l-5.48-6.09h-1.76v6.09H1.06V.37h7.95c3.57,0,5.95,2.11,5.95,5.25,0,2.78-1.86,4.76-4.76,5.18l5.58,6.17h-4.11ZM9.02,7.83c1.56,0,2.6-.89,2.6-2.21s-1.04-2.21-2.6-2.21h-4.58v4.41h4.58Z"/>
      <path class="cls-1" d="M36.82,16.97h-12.61V.37h12.56v3.05h-9.19v3.74h8.47v3h-8.47v3.77h9.24v3.05Z"/>
      <path class="cls-1" d="M54.08.37c3.82,0,6.15,2.25,6.15,5.58s-2.33,5.6-6.15,5.6h-4.36v5.43h-3.37V.37h7.73ZM54.08,8.5c1.81,0,2.8-1.02,2.8-2.55s-.99-2.53-2.8-2.53h-4.36v5.08h4.36Z"/>
      <path class="cls-1" d="M83.57,9.54c0,4.66-2.85,7.81-7.14,7.81s-7.31-3.15-7.31-7.81V.37h3.37v9.17c0,2.78,1.56,4.59,3.94,4.59,2.26,0,3.77-1.81,3.77-4.59V.37h3.37v9.17Z"/>
      <path class="cls-1" d="M103.98,8.5c1.36.17,2.9,1.51,2.9,3.86,0,2.7-1.66,4.61-5.35,4.61h-8.2V.37h8.18c3,0,4.91,1.83,4.91,4.61,0,2.11-1.44,3.25-2.43,3.42v.1ZM96.7,7.31h4.21c1.34,0,2.23-.84,2.23-2.13,0-1.17-.92-1.93-2.01-1.93h-4.44v4.06ZM101.16,14.1c1.51,0,2.28-.82,2.28-2.06s-.89-2.06-2.16-2.06h-4.58v4.11h4.46Z"/>
      <path class="cls-1" d="M128.04,16.97h-11.94V.37h3.37v13.55h8.57v3.05Z"/>
      <path class="cls-1" d="M137.21,16.97V.37h3.37v16.6h-3.37Z"/>
      <path class="cls-1" d="M163.37,10.04l3.27.67c-.82,4.26-4.19,6.64-8.18,6.64-4.88,0-8.72-3.79-8.72-8.67s3.84-8.67,8.72-8.67c3.99,0,7.34,2.4,8.18,6.39l-3.27.92c-.62-2.87-2.6-4.14-4.91-4.14-2.97,0-5.33,2.35-5.33,5.5s2.35,5.53,5.33,5.53c2.3,0,4.29-1.26,4.91-4.16Z"/>
      <path class="cls-1" d="M187.45,16.97l-1.44-3.54h-7.33l-1.46,3.54h-3.64L180.76.37h3.15l7.19,16.6h-3.64ZM182.35,4.46l-2.43,5.92h4.83l-2.4-5.92Z"/>
      <path class="cls-1" d="M214.66,16.97h-2.82l-9.19-10.65v10.65h-3.37V.37h2.83l9.19,10.95V.37h3.37v16.6Z"/>
      <path class="cls-1" d="M240.4,7.48h8.05v3.05h-8.05v6.44h-3.37V.37h12.39v3.05h-9.02v4.06Z"/>
      <path class="cls-1" d="M258.21,16.97V.37h3.37v16.6h-3.37Z"/>
      <path class="cls-1" d="M287.92,7.29c.05.57.07,1.04.07,1.44,0,4.93-3.52,8.62-8.43,8.62s-8.82-3.79-8.82-8.67,3.84-8.67,8.72-8.67c3.49,0,6.79,1.64,7.98,5l-3.02,1.07c-1.21-2.33-3.15-2.9-4.96-2.9-2.97,0-5.3,2.38-5.3,5.5s2.4,5.53,5.5,5.53c2.53,0,4.41-1.49,4.98-3.84h-5.82v-3.07h9.09Z"/>
      <path class="cls-1" d="M311.83,16.97h-3.37v-6.81h-7.93v6.81h-3.37V.37h3.37v6.74h7.93V.37h3.37v16.6Z"/>
      <path class="cls-1" d="M329.39,3.42v13.55h-3.37V3.42h-5.53V.37h14.42v3.05h-5.53Z"/>
      <path class="cls-1" d="M356.2,16.97h-12.61V.37h12.56v3.05h-9.19v3.74h8.47v3h-8.47v3.77h9.24v3.05Z"/>
      <path class="cls-1" d="M376.34,16.97l-5.48-6.09h-1.76v6.09h-3.37V.37h7.95c3.57,0,5.95,2.11,5.95,5.25,0,2.78-1.86,4.76-4.76,5.18l5.58,6.17h-4.11ZM373.69,7.83c1.56,0,2.6-.89,2.6-2.21s-1.04-2.21-2.6-2.21h-4.58v4.41h4.58Z"/>
    </g>
    <g>
      <g>
        <path class="cls-1" d="M181.54,87.72h3.85v1.46h-3.85v3.08h-1.61v-7.93h5.92v1.46h-4.31v1.94Z"/>
        <path class="cls-1" d="M194.98,88.3c0,2.31-1.83,4.13-4.18,4.13s-4.18-1.82-4.18-4.13,1.83-4.15,4.18-4.15,4.18,1.85,4.18,4.15ZM193.36,88.3c0-1.52-1.12-2.64-2.56-2.64s-2.56,1.12-2.56,2.64,1.12,2.62,2.56,2.62,2.56-1.1,2.56-2.62Z"/>
        <path class="cls-1" d="M201.35,92.25l-2.62-2.91h-.84v2.91h-1.61v-7.93h3.8c1.7,0,2.84,1.01,2.84,2.51,0,1.33-.89,2.27-2.27,2.47l2.66,2.95h-1.96ZM200.09,87.89c.75,0,1.24-.43,1.24-1.05s-.5-1.05-1.24-1.05h-2.19v2.11h2.19Z"/>
      </g>
      <rect class="cls-2" x=".47" y="84.89" width="175.49" height="7.21"/>
      <rect class="cls-2" x="207.01" y="84.89" width="174.15" height="7.21"/>
    </g>
    <g>
      <polygon class="cls-2" points="162.72 23.27 .58 23.27 .58 30.48 167.08 30.48 168.15 27.21 162.72 23.27"/>
      <polygon class="cls-2" points="181.18 23.46 176.02 27.21 177.09 30.48 185.28 30.48 186.35 27.21 181.18 23.46"/>
      <polygon class="cls-2" points="380.46 23.27 217.85 23.27 212.42 27.21 213.48 30.48 380.46 30.48 380.46 23.27"/>
      <polygon class="cls-2" points="199.38 23.46 194.22 27.21 195.29 30.48 203.48 30.48 204.54 27.21 199.38 23.46"/>
      <polygon class="cls-1" points="178.28 23.92 173.55 23.92 172.09 19.42 170.62 23.92 165.89 23.92 169.72 26.7 168.26 31.2 172.09 28.42 175.91 31.2 174.45 26.7 178.28 23.92"/>
      <polygon class="cls-1" points="196.48 23.92 191.75 23.92 190.28 19.42 188.82 23.92 184.09 23.92 187.92 26.7 186.46 31.2 190.28 28.42 194.11 31.2 192.65 26.7 196.48 23.92"/>
      <polygon class="cls-1" points="214.68 23.92 209.95 23.92 208.48 19.42 207.02 23.92 202.29 23.92 206.12 26.7 204.66 31.2 208.48 28.42 212.31 31.2 210.85 26.7 214.68 23.92"/>
    </g>
    <g>
      <path class="cls-1" d="M14.9,35.44c13,0,21.65,7.94,21.65,19.71s-8.65,19.71-21.65,19.71H.36v-39.43h14.53ZM14.9,67.63c8.18,0,13.59-4.82,13.59-12.47s-5.41-12.48-13.59-12.48h-6.53v24.95h6.53Z"/>
      <path class="cls-1" d="M73.04,74.87l-3.41-8.41h-17.42l-3.47,8.41h-8.65l17.06-39.43h7.47l17.06,39.43h-8.65ZM60.92,45.15l-5.77,14.06h11.47l-5.71-14.06Z"/>
      <path class="cls-1" d="M105.98,74.87h-7.71l-17.01-39.43h8.83l12,28.72,12.06-28.72h8.83l-17.01,39.43Z"/>
      <path class="cls-1" d="M131.39,74.87v-39.43h8v39.43h-8Z"/>
      <path class="cls-1" d="M167.2,35.44c13,0,21.65,7.94,21.65,19.71s-8.65,19.71-21.65,19.71h-14.53v-39.43h14.53ZM167.2,67.63c8.18,0,13.59-4.82,13.59-12.47s-5.41-12.48-13.59-12.48h-6.53v24.95h6.53Z"/>
      <path class="cls-2" d="M239.84,75.85h-12.46l-5.72-22.64-5.72,22.64h-12.46l-11.26-40.34h11.86l6.32,23,5.78-23h10.96l5.78,23,6.32-23h11.86l-11.26,40.34Z"/>
      <path class="cls-2" d="M278.8,63.51v12.34h-12.04v-12.34l-15.23-28h12.7l8.79,16.38,8.73-16.38h12.82l-15.77,28Z"/>
      <path class="cls-2" d="M326.97,75.85h-30.59v-40.34h11.56v30.41h19.03v9.93Z"/>
      <path class="cls-2" d="M331.37,75.85v-40.34h11.56v40.34h-11.56Z"/>
      <path class="cls-2" d="M380.68,75.85h-32.09v-40.34h31.85v9.75h-20.29v5.96h18.66v8.85h-18.66v6.02h20.53v9.75Z"/>
    </g>
    <g>
      <path class="cls-1" d="M9.66,104.73c-.43,2.34-2.31,3.7-4.7,3.7-2.77,0-4.95-2.13-4.95-4.87s2.18-4.87,4.95-4.87c2.3,0,4.24,1.36,4.69,3.58l-2.25.53c-.29-1.35-1.24-2-2.44-2-1.48,0-2.66,1.18-2.66,2.77s1.18,2.78,2.66,2.78c1.18,0,2.13-.67,2.45-2.06l2.25.45Z"/>
      <path class="cls-1" d="M31.98,103.57c0,2.71-2.18,4.86-4.97,4.86s-4.97-2.14-4.97-4.86,2.18-4.88,4.97-4.88,4.97,2.16,4.97,4.88ZM29.69,103.57c0-1.6-1.16-2.78-2.67-2.78s-2.67,1.18-2.67,2.78,1.16,2.76,2.67,2.76,2.67-1.17,2.67-2.76Z"/>
      <path class="cls-1" d="M53.03,104.02c0,2.67-1.66,4.41-4.13,4.41s-4.23-1.74-4.23-4.41v-5.12h2.3v5.12c0,1.42.77,2.3,1.93,2.3,1.1,0,1.84-.88,1.84-2.3v-5.12h2.3v5.12Z"/>
      <path class="cls-1" d="M74.94,108.22h-1.89l-4.72-5.4v5.4h-2.3v-9.32h1.91l4.72,5.57v-5.57h2.28v9.32Z"/>
      <path class="cls-1" d="M92.76,100.9v7.32h-2.28v-7.32h-3.02v-2h8.32v2h-3.02Z"/>
      <path class="cls-1" d="M113.51,108.22h-2.34v-2.89l-3.6-6.43h2.5l2.3,4.09,2.27-4.09h2.56l-3.69,6.4v2.92Z"/>
      <path class="cls-1" d="M153.5,104.73c-.43,2.34-2.31,3.7-4.7,3.7-2.77,0-4.95-2.13-4.95-4.87s2.18-4.87,4.95-4.87c2.3,0,4.24,1.36,4.69,3.58l-2.25.53c-.29-1.35-1.24-2-2.44-2-1.48,0-2.66,1.18-2.66,2.77s1.18,2.78,2.66,2.78c1.18,0,2.13-.67,2.45-2.06l2.25.45Z"/>
      <path class="cls-1" d="M175.82,103.57c0,2.71-2.18,4.86-4.97,4.86s-4.97-2.14-4.97-4.86,2.18-4.88,4.97-4.88,4.97,2.16,4.97,4.88ZM173.53,103.57c0-1.6-1.16-2.78-2.67-2.78s-2.67,1.18-2.67,2.78,1.16,2.76,2.67,2.76,2.67-1.17,2.67-2.76Z"/>
      <path class="cls-1" d="M199.29,108.22h-2.23v-4.97l-2.62,4.97h-1.06l-2.63-5v5h-2.23v-9.32h2.25l3.13,5.91,3.13-5.91h2.24v9.32Z"/>
      <path class="cls-1" d="M223.08,108.22h-2.23v-4.97l-2.62,4.97h-1.06l-2.63-5v5h-2.23v-9.32h2.25l3.13,5.91,3.13-5.91h2.24v9.32Z"/>
      <path class="cls-1" d="M236.11,108.22v-9.32h2.3v9.32h-2.3Z"/>
      <path class="cls-1" d="M258.95,101.39l-2.25.46c-.17-.88-.89-1.31-1.63-1.31s-1.25.42-1.25.95c0,.38.17.65.75.78l1.93.43c1.61.36,2.56,1.24,2.56,2.71,0,1.99-1.77,3.02-3.84,3.02s-3.83-1-4.08-2.82l2.37-.46c.24.96.9,1.38,1.84,1.38.86,0,1.38-.39,1.38-.96,0-.42-.2-.68-.86-.82l-1.95-.42c-1.34-.31-2.5-1-2.5-2.7,0-1.81,1.5-2.94,3.69-2.94,2.03,0,3.51,1,3.85,2.7Z"/>
      <path class="cls-1" d="M279.13,101.39l-2.25.46c-.17-.88-.89-1.31-1.63-1.31s-1.25.42-1.25.95c0,.38.17.65.75.78l1.93.43c1.61.36,2.56,1.24,2.56,2.71,0,1.99-1.77,3.02-3.84,3.02s-3.83-1-4.08-2.82l2.37-.46c.24.96.9,1.38,1.84,1.38.86,0,1.38-.39,1.38-.96,0-.42-.2-.68-.86-.82l-1.95-.42c-1.34-.31-2.5-1-2.5-2.7,0-1.81,1.5-2.94,3.69-2.94,2.03,0,3.51,1,3.85,2.7Z"/>
      <path class="cls-1" d="M292.02,108.22v-9.32h2.3v9.32h-2.3Z"/>
      <path class="cls-1" d="M316.96,103.57c0,2.71-2.18,4.86-4.97,4.86s-4.97-2.14-4.97-4.86,2.18-4.88,4.97-4.88,4.97,2.16,4.97,4.88ZM314.66,103.57c0-1.6-1.15-2.78-2.67-2.78s-2.67,1.18-2.67,2.78,1.16,2.76,2.67,2.76,2.67-1.17,2.67-2.76Z"/>
      <path class="cls-1" d="M338.58,108.22h-1.89l-4.72-5.4v5.4h-2.3v-9.32h1.91l4.72,5.57v-5.57h2.28v9.32Z"/>
      <path class="cls-1" d="M358.88,108.22h-7.26v-9.32h7.22v1.98h-4.93v1.75h4.52v1.86h-4.52v1.75h4.97v1.98Z"/>
      <path class="cls-1" d="M377.51,108.22l-2.81-3.2h-.67v3.2h-2.3v-9.32h4.72c2.02,0,3.35,1.22,3.35,3.05,0,1.53-.95,2.63-2.45,2.96l2.92,3.31h-2.77ZM376.2,103.1c.82,0,1.35-.45,1.35-1.13s-.53-1.11-1.35-1.11h-2.17v2.24h2.17Z"/>
    </g>
  </g>
</svg>